<svg width="43" height="44" viewBox="0 0 43 44" fill="none" xmlns="http://www.w3.org/2000/svg">
<path d="M42.9749 22.1175C42.9797 18.0094 41.8067 13.9861 39.595 10.5242C37.3833 7.06231 34.2256 4.30698 30.496 2.58468C26.7664 0.862385 22.6213 0.245314 18.5517 0.806575C14.4822 1.36784 10.6588 3.08391 7.53466 5.75146C4.4105 8.41901 2.11651 11.9262 0.924479 15.8575C-0.267555 19.7889 -0.307633 23.9795 0.808951 27.9329C1.92554 31.8863 4.15199 35.4368 7.22453 38.1636C10.2971 40.8905 14.0869 42.6794 18.1449 43.3184V28.325H12.6696V22.1175H18.1449V17.3743C18.1449 11.9945 21.3283 9.00216 26.2306 9.00216C27.8513 9.02481 29.4683 9.16312 31.0692 9.41601V14.7322H28.3316C25.6894 14.7322 24.8299 16.3875 24.8299 18.0746V22.1175H30.8146L29.8596 28.325H24.8299V43.3184C29.8829 42.5227 34.4863 39.9505 37.8123 36.0643C41.1384 32.178 42.969 27.2327 42.9749 22.1175Z" fill="#4676ED"/>
<path d="M29.8618 28.3251L30.8168 22.1176H24.8322V18.0748C24.8322 16.3876 25.6917 14.7323 28.3339 14.7323H31.0715V9.41614C29.4705 9.16324 27.8536 9.02493 26.2329 9.00229C21.3306 9.00229 18.1472 11.9946 18.1472 17.3745V22.1176H12.6719V28.3251H18.1472V43.3186C20.3592 43.7006 22.6202 43.7006 24.8322 43.3186V28.3251H29.8618Z" fill="white"/>
</svg>
