<svg width="44" height="44" viewBox="0 0 44 44" fill="none" xmlns="http://www.w3.org/2000/svg">
<g clip-path="url(#clip0_1_750)">
<path d="M22.1953 43.6049C34.0693 43.6049 43.6952 33.979 43.6952 22.1049C43.6952 10.2308 34.0693 0.60498 22.1953 0.60498C10.3212 0.60498 0.695312 10.2308 0.695312 22.1049C0.695312 33.979 10.3212 43.6049 22.1953 43.6049Z" fill="url(#paint0_linear_1_750)"/>
<path d="M28.8242 14.0056C28.4336 14.0056 28.0591 14.1608 27.7829 14.4369C27.5067 14.7131 27.3516 15.0877 27.3516 15.4782C27.3847 15.8576 27.5506 16.2132 27.8199 16.4825C28.0892 16.7518 28.4447 16.9176 28.8242 16.9508C29.2147 16.9508 29.5893 16.7957 29.8655 16.5195C30.1416 16.2433 30.2968 15.8688 30.2968 15.4782C30.3204 15.2791 30.2987 15.0773 30.233 14.8878C30.1674 14.6984 30.0596 14.5263 29.9179 14.3845C29.7761 14.2428 29.604 14.135 29.4146 14.0694C29.2251 14.0037 29.0232 13.9819 28.8242 14.0056Z" fill="white"/>
<path d="M22.1966 15.92C20.5563 15.92 18.9831 16.5716 17.8232 17.7315C16.6633 18.8914 16.0117 20.4645 16.0117 22.1049C16.0117 23.7452 16.6633 25.3184 17.8232 26.4783C18.9831 27.6382 20.5563 28.2898 22.1966 28.2898C23.0211 28.3094 23.8413 28.164 24.6087 27.8619C25.3762 27.5599 26.0755 27.1075 26.6655 26.5312C27.2556 25.9549 27.7243 25.2664 28.0443 24.5063C28.3643 23.7461 28.529 22.9296 28.5288 22.1049C28.529 21.2801 28.3643 20.4637 28.0443 19.7035C27.7243 18.9433 27.2556 18.2549 26.6655 17.6786C26.0755 17.1023 25.3762 16.6498 24.6087 16.3478C23.8413 16.0458 23.0211 15.9003 22.1966 15.92ZM22.1966 26.0809C21.1538 26.0443 20.1636 25.6136 19.4257 24.8758C18.6879 24.1379 18.2572 23.1477 18.2206 22.1049C18.2572 21.062 18.6879 20.0719 19.4257 19.334C20.1636 18.5961 21.1538 18.1655 22.1966 18.1289C23.2511 18.1289 24.2625 18.5478 25.0081 19.2934C25.7538 20.039 26.1726 21.0504 26.1726 22.1049C26.1726 23.1594 25.7538 24.1707 25.0081 24.9164C24.2625 25.662 23.2511 26.0809 22.1966 26.0809Z" fill="white"/>
<path d="M27.2024 34.7694H17.1887C15.1578 34.7694 13.2101 33.9626 11.7741 32.5265C10.338 31.0905 9.53125 29.1428 9.53125 27.1119V17.0982C9.53125 15.0673 10.338 13.1196 11.7741 11.6835C13.2101 10.2475 15.1578 9.44067 17.1887 9.44067H27.2024C28.2012 9.44048 29.19 9.63951 30.1109 10.0261C31.0318 10.4127 31.8664 10.9791 32.5657 11.6922C33.2651 12.4053 33.8152 13.2506 34.1838 14.1789C34.5524 15.1071 34.7322 16.0996 34.7127 17.0982V27.1119C34.7322 28.1104 34.5524 29.1029 34.1838 30.0312C33.8152 30.9594 33.2651 31.8048 32.5657 32.5179C31.8664 33.2309 31.0318 33.7974 30.1109 34.184C29.19 34.5706 28.2012 34.7696 27.2024 34.7694ZM17.1887 11.7968C16.4926 11.7968 15.8032 11.934 15.16 12.2004C14.5168 12.4668 13.9324 12.8573 13.4401 13.3496C12.9478 13.8418 12.5574 14.4263 12.2909 15.0695C12.0245 15.7126 11.8874 16.402 11.8874 17.0982V27.1119C11.8874 27.808 12.0245 28.4974 12.2909 29.1406C12.5574 29.7838 12.9478 30.3682 13.4401 30.8605C13.9324 31.3528 14.5168 31.7433 15.16 32.0097C15.8032 32.2761 16.4926 32.4132 17.1887 32.4132H27.2024C28.5828 32.3749 29.8936 31.7994 30.8562 30.8094C31.8188 29.8193 32.3571 28.4927 32.3565 27.1119V17.0982C32.3571 15.7173 31.8188 14.3908 30.8562 13.4007C29.8936 12.4106 28.5828 11.8352 27.2024 11.7968H17.1887Z" fill="white"/>
</g>
<defs>
<linearGradient id="paint0_linear_1_750" x1="37.4514" y1="6.90771" x2="6.99804" y2="37.3611" gradientUnits="userSpaceOnUse">
<stop stop-color="#FBE18A"/>
<stop offset="0.21" stop-color="#FCBB45"/>
<stop offset="0.38" stop-color="#F75274"/>
<stop offset="0.52" stop-color="#D53692"/>
<stop offset="0.74" stop-color="#8F39CE"/>
<stop offset="1" stop-color="#5B4FE9"/>
</linearGradient>
<clipPath id="clip0_1_750">
<rect width="42.9999" height="42.9999" fill="white" transform="translate(0.695312 0.60498)"/>
</clipPath>
</defs>
</svg>
