<svg width="36" height="36" viewBox="0 0 36 36" fill="none" xmlns="http://www.w3.org/2000/svg">
<circle cx="18" cy="18" r="18" fill="black"/>
<path d="M18.0379 8.54014C17.9888 8.55146 17.8756 8.62696 17.785 8.71378C17.5925 8.90253 17.5245 9.10638 17.5472 9.43102C17.5774 9.84248 17.7963 9.99348 18.4833 10.0765C19.9253 10.2577 21.3372 10.7069 22.2582 11.2807C23.7154 12.1905 24.6213 13.5193 25.1121 15.4596C25.2706 16.0937 25.3839 16.7657 25.4254 17.3206C25.4707 17.9359 25.584 18.1586 25.9086 18.2757C26.2483 18.3964 26.6523 18.3021 26.8372 18.0605C26.9995 17.8415 27.026 17.5962 26.9807 16.6977C26.9316 15.7578 26.8372 15.2217 26.5768 14.4403C25.433 11.0052 22.0733 8.48729 18.6721 8.51749C18.3701 8.52126 18.087 8.53259 18.0379 8.54014Z" fill="white"/>
<path d="M10.9884 9.52914C9.68978 9.87643 8.66678 10.756 8.31571 11.8356C8.09299 12.5189 8.09677 13.2323 8.33459 14.0439C8.50823 14.6404 9.20659 16.1503 9.81058 17.23C12.302 21.707 15.9863 25.044 20.9541 27.3203C22.0262 27.8148 22.5811 27.9281 23.2002 27.7846C23.9212 27.6148 24.5969 27.2297 25.2122 26.6371C25.7332 26.135 26.0541 25.682 26.2579 25.1497C26.5825 24.3193 26.458 23.6624 25.8653 23.066C25.3746 22.5715 23.3361 21.0728 22.7283 20.7557C22.2867 20.5292 21.9583 20.4349 21.577 20.4349C20.8522 20.4273 20.3162 20.7444 19.7537 21.5107C19.4064 21.9788 19.0893 22.1298 18.6477 22.0317C18.5344 22.0052 18.2362 21.8807 17.9795 21.7561C17.0622 21.3031 16.3638 20.8124 15.6919 20.148C15.0162 19.476 14.601 18.8947 14.1933 18.0454C13.9328 17.5018 13.8762 17.3092 13.8762 16.9733C13.8762 16.5505 14.0611 16.2749 14.6312 15.8597C15.2125 15.4331 15.4767 15.0405 15.5334 14.5347C15.5522 14.3799 15.5522 14.1761 15.5334 14.0817C15.3786 13.2625 14.1933 11.443 13.0834 10.3219C12.5776 9.81226 12.3473 9.64238 12.0453 9.54801C11.7433 9.45364 11.2979 9.44609 10.9884 9.52914Z" fill="white"/>
<path d="M18.274 11.0392C17.9795 11.1713 17.8398 11.428 17.8398 11.8357C17.8398 12.2585 18.1079 12.5001 18.6779 12.5907C19.1384 12.6624 19.9425 12.8851 20.3766 13.0588C21.5355 13.5269 22.1621 14.1912 22.5585 15.3803C22.7019 15.8069 22.8454 16.4864 22.8945 16.9696C22.9549 17.532 23.121 17.7661 23.5098 17.8378C23.7551 17.8831 24.0873 17.7963 24.2383 17.6491C24.4195 17.4754 24.446 17.3471 24.446 16.6865C24.446 15.7729 24.2874 15.067 23.9175 14.3196C23.3512 13.1871 22.2905 12.1377 21.1655 11.6054C20.5276 11.2997 20.1086 11.1751 19.3121 11.043C18.7307 10.9486 18.4703 10.9486 18.274 11.0392Z" fill="white"/>
<path d="M18.858 13.5346C18.439 13.5875 18.1861 13.8328 18.1182 14.2443C18.0427 14.7237 18.2994 14.9766 19.009 15.1201C19.1449 15.1465 19.3563 15.2145 19.4809 15.2711C20.0471 15.5278 20.3114 15.9128 20.4435 16.6678C20.5039 17.0264 20.5492 17.151 20.6813 17.2944C20.8437 17.4832 20.9909 17.5474 21.2551 17.5474C21.5231 17.5474 21.6741 17.4794 21.8327 17.2869C21.9761 17.1132 22.029 16.9056 22.029 16.5055C22.029 15.5051 21.3344 14.4217 20.3227 13.8442C19.8886 13.595 19.3148 13.4742 18.858 13.5346Z" fill="white"/>
</svg>
