<svg width="44" height="44" viewBox="0 0 44 44" fill="none" xmlns="http://www.w3.org/2000/svg">
<path d="M21.6328 43.6049C33.5068 43.6049 43.1327 33.979 43.1327 22.1049C43.1327 10.2308 33.5068 0.60498 21.6328 0.60498C9.75867 0.60498 0.132812 10.2308 0.132812 22.1049C0.132812 33.979 9.75867 43.6049 21.6328 43.6049Z" fill="#010201"/>
<path d="M15.8994 30.7049C15.8994 30.7218 15.9062 30.738 15.9181 30.7499C15.9301 30.7619 15.9462 30.7686 15.9631 30.7686C16.2179 30.9597 16.3772 31.1827 16.6002 31.3738C17.279 31.9473 18.1326 32.273 19.0209 32.2975C20.0654 32.3685 21.0963 32.0285 21.8936 31.3502C22.691 30.6718 23.1918 29.7087 23.2891 28.6664C23.3152 28.5732 23.3259 28.4764 23.3209 28.3797V9.07754C23.3209 8.63162 23.3209 8.63163 23.735 8.63163H26.6653C26.7652 8.62224 26.8655 8.64451 26.952 8.69532C27.0157 8.72717 27.0157 8.79087 27.0475 8.85457C27.3862 10.5393 28.3544 12.0315 29.7549 13.0272L30.0098 13.2501L30.2009 13.4094C30.4066 13.5621 30.5985 13.7326 30.7742 13.919C31.5664 14.5669 32.4903 15.0343 33.4816 15.2886C33.5287 15.2822 33.5766 15.2876 33.6211 15.3042C33.6656 15.3209 33.7052 15.3484 33.7364 15.3842C33.7849 15.4479 33.8077 15.5275 33.8002 15.6072V19.0153C33.8002 19.2701 33.7365 19.302 33.4816 19.302C32.6546 19.2901 31.8316 19.1832 31.029 18.9835C29.6536 18.6723 28.3472 18.1109 27.175 17.3272C27.1113 17.2953 27.0475 17.1998 26.9838 17.2316C26.9201 17.2635 26.952 17.3908 26.952 17.4546V27.0419C26.9444 29.2819 26.1173 31.4416 24.627 33.1139C23.1367 34.7861 21.086 35.8553 18.8616 36.1197C17.0779 36.3285 15.2721 36.0072 13.6698 35.196C13.4012 35.0599 13.1454 34.9 12.9054 34.7182L12.6824 34.5271C12.1494 34.0392 11.6978 33.4693 11.3446 32.839C10.8004 31.8798 10.4234 30.835 10.2298 29.7493C10.1354 29.1277 10.1034 28.4981 10.1343 27.8701C10.2131 26.028 10.849 24.2532 11.958 22.7802C13.067 21.3072 14.5969 20.2055 16.3454 19.6205C17.0238 19.3812 17.7305 19.2313 18.4476 19.1746H18.8616C18.9253 19.1746 18.989 19.1746 19.0209 19.2383H19.0528C19.0784 19.2986 19.0892 19.364 19.0846 19.4294V22.9968C19.0846 23.0817 19.0209 23.1136 18.8935 23.0923C18.5803 23.0166 18.2601 22.9739 17.938 22.9649C17.439 22.9265 16.9377 23.0028 16.4728 23.1879C14.8802 23.7612 13.9246 24.9079 13.7335 26.5642C13.5424 28.2205 14.1795 29.5264 15.5491 30.4819L15.8994 30.7049Z" fill="white"/>
<path d="M12.9054 34.7182C12.9301 34.7182 12.9545 34.724 12.9766 34.735C12.9987 34.7461 13.018 34.7621 13.0328 34.7819C14.0566 35.4087 15.1925 35.8306 16.3772 36.0242C16.9774 36.1194 17.5859 36.1514 18.1928 36.1197C20.1649 36.0354 22.0554 35.3083 23.5757 34.0493C24.562 33.2627 25.366 32.2717 25.9324 31.1444C26.4988 30.0172 26.814 28.7805 26.8565 27.5197C26.8883 27.1694 26.8883 26.819 26.8883 26.4368V17.1042L27.0475 17.1679C28.1201 17.9225 29.3168 18.4831 30.5831 18.8242C31.2706 19.0159 31.9744 19.1438 32.6854 19.2064H33.609C33.7364 19.2383 33.7364 19.2064 33.7364 19.079L33.7364 15.3842L34.5327 15.5116H35.0424C35.1379 15.5116 35.1697 15.5116 35.1697 15.6072V20.2575C35.1697 20.3849 35.1697 20.4168 35.0105 20.4168C34.8512 20.4168 34.0868 20.3849 33.6409 20.3212C32.6952 20.1856 31.7663 19.9508 30.8697 19.6205C30.0351 19.272 29.2353 18.8454 28.4809 18.3464L28.3216 18.219V28.1886C28.3403 29.8906 27.8646 31.5614 26.952 32.9982C26.0874 34.4056 24.8501 35.5463 23.3773 36.294C21.9044 37.0417 20.2533 37.3672 18.6068 37.2345C16.5188 37.1214 14.5408 36.2624 13.0328 34.8138C12.9812 34.7963 12.9365 34.7629 12.9054 34.7182Z" fill="#CB1C54"/>
<path d="M26.952 8.69532L23.6076 8.69531C23.3846 8.69531 23.3846 8.69531 23.3846 8.91827V28.1249C23.4019 28.5683 23.3372 29.011 23.1935 29.4308C22.9773 30.1497 22.5696 30.7963 22.0142 31.3014C21.4587 31.8065 20.7765 32.1511 20.0404 32.2984C19.3042 32.4456 18.5418 32.3899 17.8349 32.1373C17.1279 31.8847 16.503 31.4446 16.0269 30.8642L15.9631 30.7686L16.9505 31.119C17.9811 31.325 19.0515 31.1314 19.9446 30.5775C20.4591 30.2716 20.8998 29.8561 21.2356 29.3607C21.5714 28.8653 21.794 28.302 21.8876 27.7108C21.9245 27.4682 21.9458 27.2235 21.9512 26.9782V7.77162C21.9512 7.4531 21.8876 7.51681 22.2061 7.51681H26.729C26.8883 7.54866 26.8883 7.54866 26.8883 7.67607C26.8796 8.01703 26.901 8.35808 26.952 8.69532Z" fill="#6ABAC5"/>
<path d="M19.0209 19.2064C18.1215 19.2122 17.2288 19.3627 16.3772 19.6523C15.1547 20.0522 14.0348 20.7154 13.0965 21.5953C12.2362 22.3546 11.5365 23.2784 11.0387 24.3123C10.5409 25.3462 10.2551 26.4692 10.198 27.6153C10.1661 27.9657 10.1661 28.3479 10.1661 28.6983C10.2292 29.7151 10.4551 30.7152 10.835 31.6605C11.249 32.7056 11.8661 33.6583 12.6506 34.4634C12.6506 34.4953 12.6824 34.4953 12.6824 34.5271C12.5114 34.4398 12.3511 34.3329 12.2047 34.2086C11.23 33.4419 10.4222 32.4842 9.83071 31.3943C9.2392 30.3043 8.87643 29.1051 8.76466 27.8701C8.72219 27.4042 8.71156 26.936 8.73282 26.4686C8.82029 25.3907 9.08952 24.3353 9.52911 23.3471C9.97882 22.3167 10.6284 21.3857 11.4402 20.6079C12.3673 19.6838 13.4878 18.9767 14.7209 18.5375C15.5042 18.2703 16.3171 18.0992 17.1417 18.0279C17.7368 17.986 18.3347 18.0074 18.9254 18.0916C18.9891 18.0916 19.0528 18.0916 19.0528 18.1872C19.0528 18.2827 19.0528 18.856 19.0209 19.2064Z" fill="#6ABAC5"/>
<path d="M15.8994 30.7049C15.5292 30.5497 15.1936 30.3223 14.9121 30.036C14.211 29.3723 13.7704 28.4798 13.6698 27.5197C13.5928 26.8458 13.6826 26.1633 13.9312 25.5323C14.1797 24.9012 14.5795 24.3408 15.0954 23.9004C15.6113 23.4601 16.2274 23.1531 16.8897 23.0067C17.5519 22.8602 18.2401 22.8787 18.8935 23.0605H19.0209C19.0528 23.0286 19.0528 22.9331 19.0528 22.9012V19.2064C19.4997 19.1799 19.9482 19.2012 20.3905 19.2701C20.4031 19.2701 20.4155 19.2726 20.4271 19.2774C20.4387 19.2822 20.4493 19.2892 20.4581 19.2981C20.467 19.307 20.474 19.3175 20.4788 19.3291C20.4836 19.3407 20.4861 19.3531 20.4861 19.3657V24.0797C20.4908 24.1451 20.4798 24.2106 20.4542 24.2708L19.8491 24.1434C19.2825 24.0523 18.7031 24.0818 18.1488 24.23C17.5944 24.3782 17.0775 24.6418 16.632 25.0034C16.2271 25.3088 15.8865 25.691 15.6296 26.1283C15.3727 26.5656 15.2046 27.0492 15.135 27.5516C15.0378 28.0801 15.0469 28.6228 15.1617 29.1478C15.2766 29.6728 15.4949 30.1697 15.8039 30.6094L15.8994 30.7049Z" fill="#CB1C54"/>
<path d="M30.0098 13.2501C29.5714 12.9663 29.1655 12.6352 28.7994 12.2627C27.8555 11.287 27.214 10.0592 26.952 8.72719C27.398 8.69533 27.812 8.72719 28.2261 8.72719C28.6402 8.72719 28.3216 8.72718 28.3216 8.82274V8.91829C28.3155 10.0625 28.6241 11.1864 29.2135 12.1672C29.4184 12.5237 29.6643 12.855 29.9461 13.1546C29.9461 13.1546 30.0098 13.1864 30.0098 13.2501Z" fill="#CB1C54"/>
<path d="M33.7364 15.3842C32.5626 15.1425 31.4743 14.5929 30.5831 13.7916C30.4402 13.6807 30.3118 13.5523 30.2009 13.4094L30.2965 13.4094C31.0144 13.8253 31.8024 14.106 32.6216 14.2375C32.9362 14.3008 33.2563 14.3328 33.5771 14.3331C33.7364 14.3012 33.7364 14.3331 33.7364 14.4605L33.7364 15.3842Z" fill="#6ABAC5"/>
</svg>
