<svg width="44" height="44" viewBox="0 0 44 44" fill="none" xmlns="http://www.w3.org/2000/svg">
<path d="M21.9179 43.6049C33.792 43.6049 43.4179 33.979 43.4179 22.1049C43.4179 10.2308 33.792 0.60498 21.9179 0.60498C10.0438 0.60498 0.417969 10.2308 0.417969 22.1049C0.417969 33.979 10.0438 43.6049 21.9179 43.6049Z" fill="#5A99EC"/>
<path d="M17.5874 34.4635C28.0666 34.4635 33.8317 25.768 33.8317 18.2191C33.8317 17.9643 33.7999 17.7414 33.7999 17.4865C34.9161 16.6785 35.8765 15.6749 36.6347 14.5243C35.5935 14.9885 34.4869 15.2894 33.3539 15.4162C34.5529 14.7114 35.4492 13.5883 35.8703 12.2628C34.7624 12.9382 33.5439 13.4127 32.271 13.6643C31.4861 12.8313 30.4698 12.2523 29.353 12.0018C28.2362 11.7513 27.07 11.8408 26.0045 12.2588C24.939 12.6768 24.023 13.4041 23.3744 14.3471C22.7258 15.2901 22.3743 16.4057 22.3651 17.5502C22.369 17.9901 22.4225 18.4282 22.5244 18.8562C20.2567 18.7453 18.0378 18.1576 16.0126 17.1313C13.9874 16.105 12.2014 14.6631 10.7711 12.8999C10.2447 13.763 9.96903 14.7556 9.97478 15.7665C9.97547 16.7063 10.2085 17.6314 10.653 18.4594C11.0976 19.2874 11.7399 19.9927 12.5229 20.5125C11.6206 20.4796 10.7379 20.2399 9.94294 19.8117V19.8754C9.9456 21.1949 10.4033 22.4731 11.2389 23.4944C12.0745 24.5156 13.2367 25.2174 14.5296 25.4813C13.6865 25.6984 12.8064 25.731 11.9496 25.5769C12.3143 26.7073 13.023 27.6955 13.9767 28.4036C14.9303 29.1117 16.0813 29.5043 17.2688 29.5265C15.2549 31.1163 12.7636 31.9804 10.1977 31.9791C9.73949 31.9801 9.28179 31.9482 8.82812 31.8835C11.4373 33.5716 14.4797 34.4677 17.5874 34.4635Z" fill="white"/>
</svg>
