<svg width="44" height="44" viewBox="0 0 44 44" fill="none" xmlns="http://www.w3.org/2000/svg">
<path d="M22.3515 43.6049C34.2256 43.6049 43.8514 33.979 43.8514 22.1049C43.8514 10.2308 34.2256 0.60498 22.3515 0.60498C10.4774 0.60498 0.851562 10.2308 0.851562 22.1049C0.851562 33.979 10.4774 43.6049 22.3515 43.6049Z" fill="#DA0000"/>
<path d="M36.077 15.1932C35.9079 14.5849 35.5844 14.0306 35.138 13.5842C34.6915 13.1377 34.1372 12.8142 33.5289 12.6451C31.2993 12.0718 22.3489 12.0718 22.3489 12.0718C22.3489 12.0718 13.3667 12.0718 11.1371 12.6451C10.5288 12.8142 9.97447 13.1377 9.528 13.5842C9.08153 14.0306 8.75807 14.5849 8.58897 15.1932C8.01564 17.4229 8.01562 22.1051 8.01562 22.1051C8.01562 22.1051 8.01564 26.7554 8.58897 28.9851C8.75807 29.5934 9.08153 30.1477 9.528 30.5942C9.97447 31.0406 10.5288 31.3641 11.1371 31.5332C13.3667 32.1384 22.3489 32.1384 22.3489 32.1384C22.3489 32.1384 31.2993 32.1384 33.5289 31.5332C34.1372 31.3641 34.6915 31.0406 35.138 30.5942C35.5844 30.1477 35.9079 29.5934 36.077 28.9851C36.6822 26.7554 36.6823 22.1051 36.6823 22.1051C36.6823 22.1051 36.6822 17.4229 36.077 15.1932ZM19.4823 26.4051V17.8051L26.9037 22.1051L19.4823 26.4051Z" fill="white"/>
</svg>
