<?xml version="1.0" standalone="no"?>
<!DOCTYPE svg PUBLIC "-//W3C//DTD SVG 20010904//EN"
 "http://www.w3.org/TR/2001/REC-SVG-20010904/DTD/svg10.dtd">
<svg version="1.0" xmlns="http://www.w3.org/2000/svg"
 width="179.000000pt" height="179.000000pt" viewBox="0 0 179.000000 179.000000"
 preserveAspectRatio="xMidYMid meet">
<metadata>
Created by potrace 1.14, written by Peter Selinger 2001-2017
</metadata>
<g transform="translate(0.000000,179.000000) scale(0.100000,-0.100000)"
fill="#000000" stroke="none">
<path d="M737 1776 c-32 -7 -60 -13 -62 -14 -3 -1 -30 -9 -60 -17 -121 -36
-277 -132 -369 -229 -105 -111 -181 -248 -221 -397 -23 -87 -25 -110 -21 -245
4 -159 19 -234 72 -351 114 -251 358 -447 629 -505 92 -19 274 -18 366 2 355
78 613 335 693 688 19 81 19 286 1 373 -43 204 -148 372 -323 516 -91 76 -231
142 -367 174 -72 17 -270 20 -338 5z m249 -10 c193 -19 382 -110 524 -255 72
-72 136 -160 168 -231 35 -78 51 -120 46 -120 -3 0 0 -8 5 -19 10 -18 15 -41
30 -133 11 -65 6 -212 -9 -283 -35 -169 -115 -319 -236 -441 -143 -145 -310
-230 -512 -260 -36 -5 -222 -5 -230 0 -4 2 -23 7 -42 10 -79 13 -159 40 -240
81 -49 25 -71 39 -134 85 -12 8 -51 44 -87 80 -170 167 -262 401 -254 643 4
91 7 115 26 192 21 85 92 235 142 300 153 200 360 319 612 351 22 3 41 6 42 8
3 2 83 -2 149 -8z"/>
<path d="M730 1710 c-185 -39 -321 -114 -443 -244 -106 -112 -191 -275 -212
-406 -3 -19 -8 -43 -11 -52 -7 -23 -7 -152 0 -217 3 -29 15 -86 27 -125 85
-286 304 -499 594 -577 112 -30 298 -30 410 0 180 48 349 159 458 302 108 140
170 334 167 519 -4 317 -191 604 -482 740 -149 70 -349 93 -508 60z"/>
</g>
</svg>
